<svg xmlns="http://www.w3.org/2000/svg" width="960" height="570" viewBox="0 0 960 570"><defs><marker id="arrow" markerWidth="11" markerHeight="8" refX="9.5" refY="4" orient="auto" markerUnits="strokeWidth"><path d="M0,0 L10,4 L0,8 Z" fill="#4B5568"/></marker><filter id="shadow" x="-10%" y="-10%" width="120%" height="130%"><feDropShadow dx="0" dy="3" stdDeviation="4" flood-color="#0F172A" flood-opacity="0.10"/></filter><style>text{font-family:'Microsoft YaHei','SimHei','Noto Sans CJK SC',Arial,sans-serif;fill:#172033;dominant-baseline:auto}.title{font-size:24px;font-weight:700}.subtitle{font-size:14px;fill:#5B677A}.node-title{font-size:18px;font-weight:700}.node-text{font-size:13px;fill:#334155}.small{font-size:12px;fill:#64748B}.lane{font-size:14px;font-weight:700;fill:#475569}</style></defs><rect x="0" y="0" width="960" height="570" fill="#FFFFFF"/><text x="480.0" y="38" text-anchor="middle" font-size="24" font-weight="700" fill="#172033">软件模块数据流与实时/异步分层</text><rect x="30" y="78" width="900" height="155" rx="18" fill="#F8FAFC" stroke="#CBD5E1" stroke-width="1.2"/><text x="52" y="105" text-anchor="start" font-size="16" font-weight="700" fill="#2563EB">实时路径</text><rect x="70" y="128" width="145" height="62" rx="18" fill="#DBEAFE" stroke="#2563EB" stroke-width="1.6" filter="url(#shadow)"/><text x="142.5" y="158" text-anchor="middle" font-size="18" font-weight="700" fill="#172033">浏览器采集</text><text x="142.5" y="182" text-anchor="middle" font-size="13" font-weight="400" fill="#334155">JPEG / PCM / 文本</text><line x1="218" y1="159" x2="270" y2="159" stroke="#4B5568" stroke-width="2.2" stroke-linecap="round" marker-end="url(#arrow)"/><rect x="272" y="128" width="150" height="62" rx="18" fill="#DDF8F3" stroke="#0F9F8F" stroke-width="1.6" filter="url(#shadow)"/><text x="347.0" y="158" text-anchor="middle" font-size="18" font-weight="700" fill="#172033">Worker路由</text><text x="347.0" y="182" text-anchor="middle" font-size="13" font-weight="400" fill="#334155">白名单 / 令牌</text><line x1="425" y1="159" x2="478" y2="159" stroke="#4B5568" stroke-width="2.2" stroke-linecap="round" marker-end="url(#arrow)"/><rect x="480" y="128" width="160" height="62" rx="18" fill="#FFF0DF" stroke="#EA7A23" stroke-width="1.6" filter="url(#shadow)"/><text x="560.0" y="158" text-anchor="middle" font-size="18" font-weight="700" fill="#172033">控制网关</text><text x="560.0" y="182" text-anchor="middle" font-size="13" font-weight="400" fill="#334155">背压 / 编排</text><line x1="642" y1="159" x2="694" y2="159" stroke="#4B5568" stroke-width="2.2" stroke-linecap="round" marker-end="url(#arrow)"/><rect x="696" y="128" width="175" height="62" rx="18" fill="#ECE9FF" stroke="#6D5BD0" stroke-width="1.6" filter="url(#shadow)"/><text x="783.5" y="158" text-anchor="middle" font-size="18" font-weight="700" fill="#172033">实时响应</text><text x="783.5" y="182" text-anchor="middle" font-size="13" font-weight="400" fill="#334155">检测 / ASR / TTS</text><rect x="30" y="265" width="900" height="170" rx="18" fill="#FFFDF8" stroke="#F3D7B9" stroke-width="1.2"/><text x="52" y="292" text-anchor="start" font-size="16" font-weight="700" fill="#EA7A23">异步语义路径</text><rect x="80" y="320" width="170" height="66" rx="18" fill="#FFF0DF" stroke="#EA7A23" stroke-width="1.6" filter="url(#shadow)"/><text x="165.0" y="350" text-anchor="middle" font-size="18" font-weight="700" fill="#172033">关键帧筛选</text><text x="165.0" y="374" text-anchor="middle" font-size="13" font-weight="400" fill="#334155">帧指纹 / 低频调度</text><line x1="253" y1="353" x2="318" y2="353" stroke="#4B5568" stroke-width="2.2" stroke-linecap="round" marker-end="url(#arrow)" stroke-dasharray="7 5"/><rect x="320" y="320" width="190" height="66" rx="18" fill="#DDF8F3" stroke="#0F9F8F" stroke-width="1.6" filter="url(#shadow)"/><text x="415.0" y="350" text-anchor="middle" font-size="18" font-weight="700" fill="#172033">Qwen3-VL语义</text><text x="415.0" y="374" text-anchor="middle" font-size="13" font-weight="400" fill="#334155">动作 / 背景 / 状态</text><line x1="512" y1="353" x2="578" y2="353" stroke="#4B5568" stroke-width="2.2" stroke-linecap="round" marker-end="url(#arrow)" stroke-dasharray="7 5"/><rect x="580" y="320" width="170" height="66" rx="18" fill="#E4F6ED" stroke="#238B5E" stroke-width="1.6" filter="url(#shadow)"/><text x="665.0" y="350" text-anchor="middle" font-size="18" font-weight="700" fill="#172033">语义缓存</text><text x="665.0" y="374" text-anchor="middle" font-size="13" font-weight="400" fill="#334155">不过期才进入上下文</text><line x1="752" y1="353" x2="820" y2="245" stroke="#4B5568" stroke-width="2.2" stroke-linecap="round" marker-end="url(#arrow)" stroke-dasharray="7 5"/><rect x="692" y="238" width="190" height="58" rx="16" fill="#F5F7FA" stroke="#CBD5E1" stroke-width="1.2"/><text x="787" y="264" text-anchor="middle" font-size="17" font-weight="700" fill="#172033">对话计划合成</text><text x="787" y="286" text-anchor="middle" font-size="12" font-weight="400" fill="#5B677A">文本 + 表情 + 动作 + 音频</text><line x1="787" y1="296" x2="787" y2="452" stroke="#4B5568" stroke-width="2.2" stroke-linecap="round" marker-end="url(#arrow)"/><rect x="665" y="454" width="245" height="64" rx="18" fill="#DBEAFE" stroke="#2563EB" stroke-width="1.6" filter="url(#shadow)"/><text x="787.5" y="484" text-anchor="middle" font-size="18" font-weight="700" fill="#172033">Live2D表现层</text><text x="787.5" y="508" text-anchor="middle" font-size="13" font-weight="400" fill="#334155">动作、表情、口型与气泡同步呈现</text><text x="480.0" y="548" text-anchor="middle" font-size="14" font-weight="400" fill="#5B677A">实时路径不等待生成式视觉；异步语义仅在可信且新鲜时补充对话上下文。</text></svg>