<svg xmlns="http://www.w3.org/2000/svg" width="900" height="470" viewBox="0 0 900 470"><defs><marker id="arrow" markerWidth="11" markerHeight="8" refX="9.5" refY="4" orient="auto" markerUnits="strokeWidth"><path d="M0,0 L10,4 L0,8 Z" fill="#4B5568"/></marker><filter id="shadow" x="-10%" y="-10%" width="120%" height="130%"><feDropShadow dx="0" dy="3" stdDeviation="4" flood-color="#0F172A" flood-opacity="0.10"/></filter><style>text{font-family:'Microsoft YaHei','SimHei','Noto Sans CJK SC',Arial,sans-serif;fill:#172033;dominant-baseline:auto}.title{font-size:24px;font-weight:700}.subtitle{font-size:14px;fill:#5B677A}.node-title{font-size:18px;font-weight:700}.node-text{font-size:13px;fill:#334155}.small{font-size:12px;fill:#64748B}.lane{font-size:14px;font-weight:700;fill:#475569}</style></defs><rect x="0" y="0" width="900" height="470" fill="#FFFFFF"/><text x="450.0" y="38" text-anchor="middle" font-size="24" font-weight="700" fill="#172033">视觉-语音-对话-表达闭环</text><text x="450.0" y="62" text-anchor="middle" font-size="14" font-weight="400" fill="#5B677A">实时检测负责低等待感，异步语义补充负责上下文丰富度</text><rect x="330" y="90" width="240" height="86" rx="18" fill="#DBEAFE" stroke="#2563EB" stroke-width="1.6" filter="url(#shadow)"/><text x="450.0" y="120" text-anchor="middle" font-size="18" font-weight="700" fill="#172033">视觉感知</text><text x="450.0" y="144" text-anchor="middle" font-size="13" font-weight="400" fill="#334155">YOLO/Pose/人脸</text><text x="450.0" y="162" text-anchor="middle" font-size="13" font-weight="400" fill="#334155">情绪与主动说话人</text><rect x="610" y="207" width="230" height="86" rx="18" fill="#DDF8F3" stroke="#0F9F8F" stroke-width="1.6" filter="url(#shadow)"/><text x="725.0" y="237" text-anchor="middle" font-size="18" font-weight="700" fill="#172033">语音交互</text><text x="725.0" y="261" text-anchor="middle" font-size="13" font-weight="400" fill="#334155">SenseVoice ASR</text><text x="725.0" y="279" text-anchor="middle" font-size="13" font-weight="400" fill="#334155">Matcha实时 + VoxCPM高质</text><rect x="330" y="330" width="240" height="86" rx="18" fill="#FFF0DF" stroke="#EA7A23" stroke-width="1.6" filter="url(#shadow)"/><text x="450.0" y="360" text-anchor="middle" font-size="18" font-weight="700" fill="#172033">对话规划</text><text x="450.0" y="384" text-anchor="middle" font-size="13" font-weight="400" fill="#334155">视觉上下文 + 记忆</text><text x="450.0" y="402" text-anchor="middle" font-size="13" font-weight="400" fill="#334155">DeepSeek Flash生成计划</text><rect x="60" y="207" width="230" height="86" rx="18" fill="#ECE9FF" stroke="#6D5BD0" stroke-width="1.6" filter="url(#shadow)"/><text x="175.0" y="237" text-anchor="middle" font-size="18" font-weight="700" fill="#172033">表达呈现</text><text x="175.0" y="261" text-anchor="middle" font-size="13" font-weight="400" fill="#334155">Live2D动作/表情</text><text x="175.0" y="279" text-anchor="middle" font-size="13" font-weight="400" fill="#334155">音频驱动口型</text><circle cx="450" cy="250" r="52" fill="#F5F7FA" stroke="#CBD5E1" stroke-width="1.5"/><text x="450" y="244" text-anchor="middle" font-size="17" font-weight="700" fill="#172033">低等待感</text><text x="450" y="270" text-anchor="middle" font-size="17" font-weight="700" fill="#172033">交互闭环</text><path d="M570 126 C675 130 740 160 756 207" fill="none" stroke="#4B5568" stroke-width="2.2" stroke-linecap="round" stroke-linejoin="round" marker-end="url(#arrow)"/><path d="M760 293 C746 354 668 383 570 373" fill="none" stroke="#4B5568" stroke-width="2.2" stroke-linecap="round" stroke-linejoin="round" marker-end="url(#arrow)"/><path d="M330 373 C230 385 148 354 140 293" fill="none" stroke="#4B5568" stroke-width="2.2" stroke-linecap="round" stroke-linejoin="round" marker-end="url(#arrow)"/><path d="M140 207 C150 150 225 121 330 126" fill="none" stroke="#4B5568" stroke-width="2.2" stroke-linecap="round" stroke-linejoin="round" marker-end="url(#arrow)"/><text x="660" y="150" text-anchor="middle" font-size="13" font-weight="400" fill="#5B677A">结构化视觉</text><text x="682" y="346" text-anchor="middle" font-size="13" font-weight="400" fill="#5B677A">用户意图</text><text x="220" y="346" text-anchor="middle" font-size="13" font-weight="400" fill="#5B677A">控制计划</text><text x="218" y="150" text-anchor="middle" font-size="13" font-weight="400" fill="#5B677A">画面/语音</text></svg>